<?xml version="1.0" encoding="UTF-8" standalone="no"?><!DOCTYPE svg PUBLIC "-//W3C//DTD SVG 1.1//EN" "http://www.w3.org/Graphics/SVG/1.1/DTD/svg11.dtd"><!-- Generated by graphviz version 2.40.1 (20161225.0304)
 --><!-- Title: %0 Pages: 1 --><svg xmlns="http://www.w3.org/2000/svg" xmlns:xlink="http://www.w3.org/1999/xlink" width="834pt" height="206pt" viewBox="0.00 0.00 833.92 205.80">
<g id="graph0" class="graph" transform="scale(1 1) rotate(0) translate(4 201.8)">
<title>%0</title>
<polygon fill="#ffffff" stroke="transparent" points="-4,4 -4,-201.8 829.9158,-201.8 829.9158,4 -4,4"/>
<!-- Fill out discussion form -->
<g id="node1" class="node">
<title>Fill out discussion form</title>
<polygon fill="#ffffff" stroke="#000000" points="158.5074,-197.8 -.1694,-197.8 -.1694,-161.8 158.5074,-161.8 158.5074,-197.8"/>
<text text-anchor="middle" x="79.169" y="-175.6" font-family="Arial" font-size="14.00" fill="#000000">Fill out discussion form</text>
</g>
<!-- Submit form -->
<g id="node2" class="node">
<title>Submit form</title>
<polygon fill="#ffffff" stroke="#000000" points="285.1147,-197.8 193.2233,-197.8 193.2233,-161.8 285.1147,-161.8 285.1147,-197.8"/>
<text text-anchor="middle" x="239.169" y="-175.6" font-family="Arial" font-size="14.00" fill="#000000">Submit form</text>
</g>
<!-- Fill out discussion form&#45;&gt;Submit form -->
<g id="edge1" class="edge">
<title>Fill out discussion form-&gt;Submit form</title>
<path fill="none" stroke="#006400" stroke-width="2" d="M158.544,-179.8C166.0321,-179.8 173.5201,-179.8 181.0082,-179.8"/>
<polygon fill="#006400" stroke="#006400" stroke-width="2" points="181.1876,-184.0001 193.1876,-179.8 181.1875,-175.6001 181.1876,-184.0001"/>
</g>
<!-- Validate form data -->
<g id="node3" class="node">
<title>Validate form data</title>
<polygon fill="#ffffff" stroke="#000000" points="303.7545,-109 174.5835,-109 174.5835,-73 303.7545,-73 303.7545,-109"/>
<text text-anchor="middle" x="239.169" y="-86.8" font-family="Arial" font-size="14.00" fill="#000000">Validate form data</text>
</g>
<!-- Submit form&#45;&gt;Validate form data -->
<g id="edge2" class="edge">
<title>Submit form-&gt;Validate form data</title>
<path fill="none" stroke="#006400" stroke-width="2" d="M239.169,-161.4006C239.169,-149.7743 239.169,-134.4756 239.169,-121.1105"/>
<polygon fill="#006400" stroke="#006400" stroke-width="2" points="243.3691,-121.072 239.169,-109.072 234.9691,-121.0721 243.3691,-121.072"/>
</g>
<!-- Validate form data&#45;&gt;Fill out discussion form -->
<g id="edge4" class="edge">
<title>Validate form data-&gt;Fill out discussion form</title>
<path fill="none" stroke="#ff0000" stroke-width="2" d="M202.7325,-109.0819C191.722,-114.688 179.6496,-120.9777 168.6928,-127 152.4054,-135.9522 134.7322,-146.248 119.4248,-155.357"/>
<polygon fill="#ff0000" stroke="#ff0000" stroke-width="2" points="116.8914,-151.9783 108.7504,-161.7438 121.2044,-159.1865 116.8914,-151.9783"/>
<text text-anchor="middle" x="202.4071" y="-131.2" font-family="Times,serif" font-size="14.00" fill="#ff0000">Invalid data</text>
</g>
<!-- Save discussion to database -->
<g id="node4" class="node">
<title>Save discussion to database</title>
<polygon fill="#ffffff" stroke="#000000" points="573.3457,-109 378.9923,-109 378.9923,-73 573.3457,-73 573.3457,-109"/>
<text text-anchor="middle" x="476.169" y="-86.8" font-family="Arial" font-size="14.00" fill="#000000">Save discussion to database</text>
</g>
<!-- Validate form data&#45;&gt;Save discussion to database -->
<g id="edge3" class="edge">
<title>Validate form data-&gt;Save discussion to database</title>
<path fill="none" stroke="#0000ff" stroke-width="2" d="M303.9303,-91C323.3828,-91 345.2864,-91 366.7873,-91"/>
<polygon fill="#0000ff" stroke="#0000ff" stroke-width="2" points="367.0241,-95.2001 379.0241,-91 367.024,-86.8001 367.0241,-95.2001"/>
<text text-anchor="middle" x="341.5211" y="-98.2" font-family="Times,serif" font-size="14.00" fill="#0000ff">Valid data</text>
</g>
<!-- Redirect to new discussion page -->
<g id="node5" class="node">
<title>Redirect to new discussion page</title>
<polygon fill="#ffffff" stroke="#000000" points="826.1632,-109 608.1748,-109 608.1748,-73 826.1632,-73 826.1632,-109"/>
<text text-anchor="middle" x="717.169" y="-86.8" font-family="Arial" font-size="14.00" fill="#000000">Redirect to new discussion page</text>
</g>
<!-- Save discussion to database&#45;&gt;Redirect to new discussion page -->
<g id="edge6" class="edge">
<title>Save discussion to database-&gt;Redirect to new discussion page</title>
<path fill="none" stroke="#ffa500" stroke-width="2" d="M573.6045,-91C581.1198,-91 588.6351,-91 596.1504,-91"/>
<polygon fill="#ffa500" stroke="#ffa500" stroke-width="2" points="596.3741,-95.2001 608.3741,-91 596.374,-86.8001 596.3741,-95.2001"/>
</g>
<!-- Discussion table -->
<g id="node6" class="node">
<title>Discussion table</title>
<path fill="#ffffff" stroke="#000000" d="M535.0722,-32.7273C535.0722,-34.5331 508.6709,-36 476.169,-36 443.6671,-36 417.2658,-34.5331 417.2658,-32.7273 417.2658,-32.7273 417.2658,-3.2727 417.2658,-3.2727 417.2658,-1.4669 443.6671,0 476.169,0 508.6709,0 535.0722,-1.4669 535.0722,-3.2727 535.0722,-3.2727 535.0722,-32.7273 535.0722,-32.7273"/>
<path fill="none" stroke="#000000" d="M535.0722,-32.7273C535.0722,-30.9214 508.6709,-29.4545 476.169,-29.4545 443.6671,-29.4545 417.2658,-30.9214 417.2658,-32.7273"/>
<text text-anchor="middle" x="476.169" y="-13.8" font-family="Arial" font-size="14.00" fill="#000000">Discussion table</text>
</g>
<!-- Save discussion to database&#45;&gt;Discussion table -->
<g id="edge5" class="edge">
<title>Save discussion to database-&gt;Discussion table</title>
<path fill="none" stroke="#a020f0" stroke-width="2" d="M476.169,-72.9551C476.169,-65.497 476.169,-56.644 476.169,-48.2462"/>
<polygon fill="#a020f0" stroke="#a020f0" stroke-width="2" points="480.3691,-48.0903 476.169,-36.0904 471.9691,-48.0904 480.3691,-48.0903"/>
</g>
</g>
</svg>